<svg width="24" height="24" viewBox="0 0 24 24" fill="none" xmlns="http://www.w3.org/2000/svg">
<path d="M16.0625 5.12V4.62V4.44C16.0625 4.24382 15.9036 4.12 15.75 4.12H15.5625H15.0625H8.4375H8.25C8.09642 4.12 7.9375 4.24382 7.9375 4.44V4.62V5.74H7.25V4.44C7.25 3.94093 7.67937 3.5 8.25 3.5H15.75C16.3206 3.5 16.75 3.94093 16.75 4.44V5.74H16.0625V5.12ZM8.4375 6.74H8.9375H15.0625H15.5625H17.25H17.75H20.25C20.4081 6.74 20.5 6.85693 20.5 6.96V7.36H19.3969H18.9209L18.8975 7.83543L18.3186 19.6029L18.3186 19.6032C18.2949 20.0887 17.8732 20.5 17.3203 20.5H6.67969C6.1292 20.5 5.70506 20.0865 5.68144 19.6031L5.68143 19.6029L5.10252 7.83543L5.07913 7.36H4.60312H3.5V6.96C3.5 6.85693 3.59187 6.74 3.75 6.74H6.25H6.75H8.4375ZM17.1398 19.88H17.6158L17.6392 19.4046L18.2064 7.88459L18.2323 7.36H17.707H6.29297H5.76775L5.79357 7.88459L6.36076 19.4046L6.38417 19.88H6.86016H17.1398Z" fill="#9FA5B1" stroke="#9FA5B1"/>
</svg>
